<svg fill="none" height="24" viewBox="0 0 24 24" width="24" xmlns="http://www.w3.org/2000/svg"><g stroke="#1c274c" stroke-width="1.5"><path d="m22 10.5v1.5c0 4.714 0 7.0711-1.4645 8.5355-1.4644 1.4645-3.8215 1.4645-8.5355 1.4645-4.71405 0-7.07107 0-8.53553-1.4645-1.46447-1.4644-1.46447-3.8215-1.46447-8.5355 0-4.71405 0-7.07107 1.46447-8.53553 1.46446-1.46447 3.82148-1.46447 8.53553-1.46447h1.5" stroke-linecap="round"/><path d="m16.652 3.45506.6489-.64882c1.075-1.07499 2.8179-1.07499 3.8929 0 1.0749 1.075 1.0749 2.81791 0 3.8929l-.6489.64881m-3.8929-3.89289s.0811 1.37873 1.2977 2.59526c1.2165 1.21653 2.5952 1.29763 2.5952 1.29763m-3.8929-3.89289-5.9648 5.96487c-.404.40401-.606.60597-.77977.82877-.20494.2627-.38064.547-.52399.8478-.12153.255-.21187.526-.39255 1.0681l-.57847 1.7354m12.13248-6.55205-5.9648 5.96485c-.404.404-.606.606-.8288.7798-.2627.2049-.547.3806-.8478.524-.255.1215-.526.2118-1.0681.3925l-1.7354.5785m0 0-1.12291.3743c-.26674.0889-.56083.0195-.75965-.1793-.19882-.1989-.26824-.4929-.17933-.7597l.37431-1.1229m1.68758 1.6876-1.68758-1.6876"/></g></svg>