<svg fill="none" stroke="currentColor" viewBox="0 0 24 24" xmlns="http://www.w3.org/2000/svg">
<g stroke-width="1.8">
<path d="m20.5001 6h-17.0001" stroke-linecap="round"/>
<path d="m18.8332 8.5-.46 6.8991c-.177 2.6549-.2655 3.9824-1.1305 4.7916-.865.8093-2.1954.8093-4.8562.8093h-.7733c-2.66085 0-3.99125 0-4.85626-.8093-.865-.8092-.9535-2.1367-1.1305-4.7916l-.45994-6.8991" stroke-linecap="round"/>
<path d="m6.5 6c.05588 0 .08382 0 .10915-.00064.82344-.02087 1.54987-.54445 1.83007-1.31904.00862-.02383.01745-.05033.03512-.10335l.09709-.29126c.08288-.24863.12432-.37295.17928-.47851.2193-.42113.62503-.71356 1.0939-.78843.11752-.01877.24859-.01877.51069-.01877h3.2894c.2621 0 .3932 0 .5107.01877.4689.07487.8746.3673 1.0939.78843.055.10556.0964.22988.1793.47851l.0971.29126c.0176.05295.0265.07954.0351.10335.2802.77459 1.0066 1.29817 1.8301 1.31904.0253.00064.0532.00064.1091.00064"/>
</g>
</svg>
